<svg width="216" height="48" viewBox="0 0 216 48" fill="none" xmlns="http://www.w3.org/2000/svg">
<path fill-rule="evenodd" clip-rule="evenodd" d="M15.4515 30.4271C16.2451 30.8473 17.1498 31.0279 18.0498 30.9456C18.9499 30.8634 19.804 30.522 20.5027 29.9654C21.2014 29.4088 21.7128 28.6623 21.9712 27.8217C22.2297 26.9811 22.2234 26.0847 21.9532 25.2476C21.6108 24.1801 21.4888 23.0576 21.5943 21.9443C21.6997 20.831 22.0306 19.7489 22.5679 18.7599C23.1052 17.771 23.8384 16.8947 24.7253 16.1812C25.6123 15.4678 26.6357 14.9313 27.7368 14.6024C28.5908 14.3428 29.3465 13.8439 29.9089 13.1685C30.4714 12.4931 30.8154 11.6714 30.8977 10.8066C30.98 9.94191 30.7969 9.07287 30.3714 8.30895C29.946 7.54498 29.2971 6.92019 28.5066 6.51325C27.7161 6.1063 26.8192 5.93531 25.9289 6.02188C25.0384 6.1084 24.1943 6.44856 23.5026 6.9996C22.8109 7.55058 22.3027 8.28782 22.0418 9.11848C21.7809 9.94913 21.779 10.8361 22.0364 11.6678C22.712 13.8149 22.4835 16.1344 21.4011 18.1185C20.3185 20.1025 18.4702 21.5896 16.2605 22.2543C15.3881 22.4998 14.6118 22.9937 14.032 23.6721C13.4522 24.3506 13.0957 25.1823 13.0085 26.0596C12.9214 26.937 13.1077 27.8195 13.5432 28.5929C13.9788 29.3664 14.6436 29.9951 15.4515 30.3977V30.4271ZM43.341 35.3132C43.0203 34.8178 42.6011 34.3894 42.1078 34.0531C41.6145 33.7168 41.0571 33.4793 40.4681 33.3544C38.2148 32.8458 36.2605 31.4923 35.0322 29.5898C33.8041 27.6872 33.4019 25.3902 33.9135 23.2008C34.1102 22.3545 34.0449 21.4708 33.7257 20.6604C33.4065 19.8501 32.8477 19.1494 32.1195 18.6463C31.3912 18.1431 30.526 17.8601 29.6324 17.8325C28.739 17.805 27.857 18.0343 27.0974 18.4916C26.3377 18.9489 25.7343 19.6138 25.3627 20.4029C24.9913 21.192 24.8683 22.0699 25.0093 22.9265C25.1503 23.7832 25.5491 24.5803 26.1554 25.2178C26.7617 25.8552 27.5486 26.3046 28.4173 26.5095C29.5411 26.7555 30.6038 27.2143 31.5445 27.8596C32.4852 28.5049 33.2854 29.324 33.8992 30.27C34.5131 31.216 34.9285 32.2703 35.1216 33.3724C35.3148 34.4744 35.2819 35.6027 35.0249 36.6925C34.8727 37.395 34.8998 38.1229 35.104 38.8129C35.3081 39.5029 35.6831 40.1339 36.1961 40.6511C36.7092 41.1682 37.3448 41.5558 38.0476 41.7799C38.7503 42.004 39.4989 42.058 40.228 41.937C40.9573 41.8161 41.6449 41.5239 42.2311 41.0861C42.8172 40.6481 43.2841 40.0778 43.5911 39.4246C43.898 38.7714 44.0357 38.0554 43.9921 37.3388C43.9485 36.6222 43.725 35.9268 43.341 35.3132ZM25.3807 30.1114C25.9285 29.8657 26.5213 29.7286 27.1244 29.708C27.8653 29.6897 28.5995 29.848 29.2629 30.1687C29.9262 30.4895 30.4984 30.9631 30.9295 31.5481C31.3606 32.1331 31.6374 32.8117 31.7357 33.5245C31.834 34.2374 31.7508 34.9627 31.4935 35.6372C31.236 36.3116 30.8123 36.9146 30.2592 37.3934C29.7062 37.8721 29.0407 38.2121 28.3209 38.3835C27.6012 38.5549 26.8491 38.5526 26.1304 38.3767C25.4118 38.2008 24.7486 37.8568 24.1987 37.3746C23.354 36.6136 22.3629 36.0218 21.2822 35.633C20.2014 35.2443 19.0522 35.0663 17.9005 35.1093C16.7488 35.1522 15.6171 35.4152 14.5702 35.8833C13.5234 36.3513 12.582 37.0151 11.8 37.8368C11.2859 38.3538 10.6492 38.7407 9.94553 38.9639C9.24186 39.1872 8.49253 39.2398 7.76303 39.1174C7.03354 38.995 6.34604 38.7012 5.76047 38.2616C5.17491 37.822 4.70917 37.25 4.4038 36.5955C4.09844 35.941 3.96284 35.224 4.00872 34.507C4.05467 33.7899 4.2807 33.0947 4.66723 32.4819C5.0537 31.8692 5.58882 31.3576 6.22599 30.9917C6.86311 30.6258 7.58288 30.4168 8.32238 30.383C8.92316 30.3602 9.52261 30.4535 10.0858 30.6575C10.6491 30.8616 11.165 31.1723 11.6034 31.5715C13.3004 33.0954 15.5502 33.9055 17.8608 33.8243C20.1714 33.7432 22.355 32.7776 23.934 31.1387C24.341 30.7062 24.8328 30.357 25.3807 30.1114Z" fill="white"/>
<path d="M65.2727 16.2614V12.7273H83.8409V16.2614H76.6477V36H72.4659V16.2614H65.2727ZM85.4261 36V18.5455H89.4148V21.4545H89.5966C89.9148 20.447 90.4602 19.6705 91.233 19.125C92.0133 18.572 92.9034 18.2955 93.9034 18.2955C94.1307 18.2955 94.3845 18.3068 94.6648 18.3295C94.9527 18.3447 95.1913 18.3712 95.3807 18.4091V22.1932C95.2064 22.1326 94.9299 22.0795 94.5511 22.0341C94.1799 21.9811 93.8201 21.9545 93.4716 21.9545C92.7216 21.9545 92.0473 22.1174 91.4489 22.4432C90.858 22.7614 90.392 23.2045 90.0511 23.7727C89.7102 24.3409 89.5398 24.9962 89.5398 25.7386V36H85.4261ZM102.824 36.3523C101.718 36.3523 100.722 36.1553 99.8352 35.7614C98.9564 35.3598 98.2595 34.7689 97.7443 33.9886C97.2367 33.2083 96.983 32.2462 96.983 31.1023C96.983 30.1174 97.1648 29.303 97.5284 28.6591C97.892 28.0152 98.3883 27.5 99.017 27.1136C99.6458 26.7273 100.354 26.4356 101.142 26.2386C101.938 26.0341 102.759 25.8864 103.608 25.7955C104.631 25.6894 105.46 25.5947 106.097 25.5114C106.733 25.4205 107.195 25.2841 107.483 25.1023C107.778 24.9129 107.926 24.6212 107.926 24.2273V24.1591C107.926 23.303 107.672 22.6402 107.165 22.1705C106.657 21.7008 105.926 21.4659 104.972 21.4659C103.964 21.4659 103.165 21.6856 102.574 22.125C101.991 22.5644 101.597 23.0833 101.392 23.6818L97.5511 23.1364C97.8542 22.0758 98.3542 21.1894 99.0511 20.4773C99.7481 19.7576 100.6 19.2197 101.608 18.8636C102.616 18.5 103.729 18.3182 104.949 18.3182C105.79 18.3182 106.627 18.4167 107.46 18.6136C108.294 18.8106 109.055 19.1364 109.744 19.5909C110.434 20.0379 110.987 20.6477 111.403 21.4205C111.828 22.1932 112.04 23.1591 112.04 24.3182V36H108.085V33.6023H107.949C107.699 34.0871 107.347 34.5417 106.892 34.9659C106.445 35.3826 105.881 35.7197 105.199 35.9773C104.525 36.2273 103.733 36.3523 102.824 36.3523ZM103.892 33.3295C104.718 33.3295 105.434 33.1667 106.04 32.8409C106.646 32.5076 107.112 32.0682 107.438 31.5227C107.771 30.9773 107.938 30.3826 107.938 29.7386V27.6818C107.809 27.7879 107.589 27.8864 107.278 27.9773C106.975 28.0682 106.634 28.1477 106.256 28.2159C105.877 28.2841 105.502 28.3447 105.131 28.3977C104.759 28.4508 104.438 28.4962 104.165 28.5341C103.551 28.6174 103.002 28.7538 102.517 28.9432C102.032 29.1326 101.65 29.3977 101.369 29.7386C101.089 30.072 100.949 30.5038 100.949 31.0341C100.949 31.7917 101.225 32.3636 101.778 32.75C102.331 33.1364 103.036 33.3295 103.892 33.3295ZM131.142 18.5455L124.926 36H120.381L114.165 18.5455H118.551L122.562 31.5114H122.744L126.767 18.5455H131.142ZM138.511 36.3523C137.405 36.3523 136.409 36.1553 135.523 35.7614C134.644 35.3598 133.947 34.7689 133.432 33.9886C132.924 33.2083 132.67 32.2462 132.67 31.1023C132.67 30.1174 132.852 29.303 133.216 28.6591C133.58 28.0152 134.076 27.5 134.705 27.1136C135.333 26.7273 136.042 26.4356 136.83 26.2386C137.625 26.0341 138.447 25.8864 139.295 25.7955C140.318 25.6894 141.148 25.5947 141.784 25.5114C142.42 25.4205 142.883 25.2841 143.17 25.1023C143.466 24.9129 143.614 24.6212 143.614 24.2273V24.1591C143.614 23.303 143.36 22.6402 142.852 22.1705C142.345 21.7008 141.614 21.4659 140.659 21.4659C139.652 21.4659 138.852 21.6856 138.261 22.125C137.678 22.5644 137.284 23.0833 137.08 23.6818L133.239 23.1364C133.542 22.0758 134.042 21.1894 134.739 20.4773C135.436 19.7576 136.288 19.2197 137.295 18.8636C138.303 18.5 139.417 18.3182 140.636 18.3182C141.477 18.3182 142.314 18.4167 143.148 18.6136C143.981 18.8106 144.742 19.1364 145.432 19.5909C146.121 20.0379 146.674 20.6477 147.091 21.4205C147.515 22.1932 147.727 23.1591 147.727 24.3182V36H143.773V33.6023H143.636C143.386 34.0871 143.034 34.5417 142.58 34.9659C142.133 35.3826 141.568 35.7197 140.886 35.9773C140.212 36.2273 139.42 36.3523 138.511 36.3523ZM139.58 33.3295C140.405 33.3295 141.121 33.1667 141.727 32.8409C142.333 32.5076 142.799 32.0682 143.125 31.5227C143.458 30.9773 143.625 30.3826 143.625 29.7386V27.6818C143.496 27.7879 143.277 27.8864 142.966 27.9773C142.663 28.0682 142.322 28.1477 141.943 28.2159C141.564 28.2841 141.189 28.3447 140.818 28.3977C140.447 28.4508 140.125 28.4962 139.852 28.5341C139.239 28.6174 138.689 28.7538 138.205 28.9432C137.72 29.1326 137.337 29.3977 137.057 29.7386C136.777 30.072 136.636 30.5038 136.636 31.0341C136.636 31.7917 136.913 32.3636 137.466 32.75C138.019 33.1364 138.723 33.3295 139.58 33.3295ZM155.977 12.7273V36H151.864V12.7273H155.977ZM160.207 36V18.5455H164.321V36H160.207ZM162.276 16.0682C161.624 16.0682 161.063 15.8523 160.594 15.4205C160.124 14.9811 159.889 14.4545 159.889 13.8409C159.889 13.2197 160.124 12.6932 160.594 12.2614C161.063 11.822 161.624 11.6023 162.276 11.6023C162.935 11.6023 163.495 11.822 163.957 12.2614C164.427 12.6932 164.662 13.2197 164.662 13.8409C164.662 14.4545 164.427 14.9811 163.957 15.4205C163.495 15.8523 162.935 16.0682 162.276 16.0682ZM168.324 36V33.3864L177.324 22.1023V21.9545H168.619V18.5455H182.358V21.3523L173.79 32.4432V32.5909H182.653V36H168.324ZM193.747 36.3409C191.997 36.3409 190.486 35.9773 189.213 35.25C187.948 34.5152 186.974 33.4773 186.293 32.1364C185.611 30.7879 185.27 29.2008 185.27 27.375C185.27 25.5795 185.611 24.0038 186.293 22.6477C186.982 21.2841 187.944 20.2235 189.179 19.4659C190.414 18.7008 191.865 18.3182 193.531 18.3182C194.607 18.3182 195.622 18.4924 196.577 18.8409C197.539 19.1818 198.387 19.7121 199.122 20.4318C199.865 21.1515 200.448 22.0682 200.872 23.1818C201.296 24.2879 201.509 25.6061 201.509 27.1364V28.3977H187.202V25.625H197.565C197.558 24.8371 197.387 24.1364 197.054 23.5227C196.721 22.9015 196.255 22.4129 195.656 22.0568C195.065 21.7008 194.376 21.5227 193.588 21.5227C192.747 21.5227 192.009 21.7273 191.372 22.1364C190.736 22.5379 190.24 23.0682 189.884 23.7273C189.535 24.3788 189.357 25.0947 189.349 25.875V28.2955C189.349 29.3106 189.535 30.1818 189.906 30.9091C190.277 31.6288 190.796 32.1818 191.463 32.5682C192.13 32.947 192.91 33.1364 193.804 33.1364C194.402 33.1364 194.944 33.053 195.429 32.8864C195.914 32.7121 196.334 32.4583 196.69 32.125C197.046 31.7917 197.315 31.3788 197.497 30.8864L201.338 31.3182C201.096 32.3333 200.634 33.2197 199.952 33.9773C199.277 34.7273 198.414 35.3106 197.361 35.7273C196.308 36.1364 195.103 36.3409 193.747 36.3409ZM204.989 36V18.5455H208.977V21.4545H209.159C209.477 20.447 210.023 19.6705 210.795 19.125C211.576 18.572 212.466 18.2955 213.466 18.2955C213.693 18.2955 213.947 18.3068 214.227 18.3295C214.515 18.3447 214.754 18.3712 214.943 18.4091V22.1932C214.769 22.1326 214.492 22.0795 214.114 22.0341C213.742 21.9811 213.383 21.9545 213.034 21.9545C212.284 21.9545 211.61 22.1174 211.011 22.4432C210.42 22.7614 209.955 23.2045 209.614 23.7727C209.273 24.3409 209.102 24.9962 209.102 25.7386V36H204.989Z" fill="white"/>
</svg>
