<svg width="16" height="16" viewBox="0 0 16 16" fill="none" xmlns="http://www.w3.org/2000/svg">
<path d="M11.7778 9.33006H8.19683V6.85991H14.4422C14.5097 7.28177 14.5499 7.72842 14.5499 8.16117C14.5499 10.1671 13.8365 11.8688 12.5974 13.0449L10.5381 11.4449C11.2317 10.963 11.6984 10.2345 11.8434 9.40815L11.8571 9.33006H11.7778Z" fill="#4280EF" stroke="#52525B" stroke-width="0.133159"/>
<path d="M10.4223 11.5242L12.4981 13.1231C11.3989 14.108 9.90731 14.6849 8.13048 14.6849C5.61496 14.6849 3.32906 13.2785 2.1846 11.0495L4.30376 9.41827C4.88007 10.9874 6.36693 12.156 8.13048 12.156C9.03388 12.156 9.81252 11.9278 10.4223 11.5242Z" fill="#34A353" stroke="#52525B" stroke-width="0.133159"/>
<path d="M4.3358 9.29411C4.05635 8.45575 4.05635 7.54386 4.3358 6.70551L2.10019 4.96997C1.14417 6.882 1.14417 9.13232 2.10019 11.0296L4.3358 9.29411Z" fill="#F6B704"/>
<path d="M8.13048 3.92564C9.0865 3.91093 10.0278 4.27863 10.7191 4.94049L12.6458 2.99904C11.4251 1.85182 9.80719 1.23408 8.13048 1.24879C5.5713 1.24879 3.24744 2.69017 2.10022 4.9699L4.33583 6.70544C4.88002 5.10227 6.36553 3.92564 8.13048 3.92564Z" fill="#E54335"/>
</svg>
