<?xml version="1.0" encoding="UTF-8" standalone="no"?>
<svg
   version="1.1"
   id="Layer_1"
   x="0px"
   y="0px"
   width="100%"
   viewBox="0 0 2953 629"
   enable-background="new 0 0 2953 629"
   xml:space="preserve"
   sodipodi:docname="file.svg"
   inkscape:version="1.2 (dc2aedaf03, 2022-05-15)"
   xmlns:inkscape="http://www.inkscape.org/namespaces/inkscape"
   xmlns:sodipodi="http://sodipodi.sourceforge.net/DTD/sodipodi-0.dtd"
   xmlns="http://www.w3.org/2000/svg"
   xmlns:svg="http://www.w3.org/2000/svg"><defs
   id="defs47" /><sodipodi:namedview
   id="namedview45"
   pagecolor="#505050"
   bordercolor="#eeeeee"
   borderopacity="1"
   inkscape:showpageshadow="0"
   inkscape:pageopacity="0"
   inkscape:pagecheckerboard="0"
   inkscape:deskcolor="#505050"
   showgrid="false"
   inkscape:zoom="0.47100543"
   inkscape:cx="1076.4207"
   inkscape:cy="701.69042"
   inkscape:window-width="3840"
   inkscape:window-height="2054"
   inkscape:window-x="-11"
   inkscape:window-y="-11"
   inkscape:window-maximized="1"
   inkscape:current-layer="Layer_1" />

<path
   fill="#FEFEFE"
   opacity="1.000000"
   stroke="none"
   d=" M427.175049,358.178741   C438.999939,348.636444 451.696777,341.540283 466.332886,338.453644   C469.250000,337.838440 470.430939,336.592316 471.055298,333.761108   C478.785980,298.704376 512.130615,272.336823 547.908630,272.860657   C556.649292,272.988647 563.508301,279.533569 563.912903,288.131897   C564.302185,296.407257 557.589661,303.816162 548.758667,304.067993   C523.219604,304.796173 505.942871,321.985870 501.747650,340.941803   C500.961914,344.492249 500.699219,348.177673 500.424133,351.818115   C499.698242,361.424683 494.246490,367.659485 484.601288,367.716736   C455.536621,367.889282 428.810699,394.845886 422.781006,419.319763   C421.880920,422.973114 421.428528,426.736725 420.696564,430.857086   C512.643738,430.857086 603.896240,430.857086 695.148743,430.857086   C695.314453,430.525635 695.480164,430.194153 695.645935,429.862701   C690.343201,427.537170 685.168762,424.840576 679.713684,422.955872   C663.484741,417.348877 646.591187,415.864868 629.547363,415.492584   C619.667969,415.276794 613.323975,410.520111 611.926514,402.483551   C610.275940,392.991241 616.034119,385.602142 627.099060,383.555939   C627.250671,377.083069 624.458252,371.835114 620.097961,367.316650   C609.737610,356.580322 596.433472,353.256836 582.143982,351.912170   C577.726379,351.496490 572.851379,350.063995 569.318909,347.522339   C564.252991,343.877350 562.818848,337.953400 564.627258,331.792053   C566.547424,325.249847 571.186829,320.877014 577.846741,320.492218   C604.736023,318.938507 642.071228,332.254089 655.138855,364.229492   C656.512512,367.590790 657.364746,371.207794 658.084167,374.781616   C658.769897,378.187653 658.965149,381.692474 659.424622,385.563171   C664.965393,386.682587 670.801941,387.736755 676.578796,389.053223   C691.630432,392.483398 705.937134,397.690582 718.291077,407.292358   C725.379578,412.801727 731.086670,419.475555 734.473816,427.868896   C735.518372,430.457367 736.963928,431.273682 739.706482,431.225006   C749.202698,431.056519 758.704041,431.119415 768.202942,431.171600   C778.760742,431.229584 785.997681,437.795013 786.054504,447.264435   C786.108337,456.240479 779.338806,462.545105 769.058533,463.026672   C757.309692,463.577057 747.723511,469.267517 740.410828,477.605927   C728.798096,490.847626 718.122314,504.934052 707.424561,518.948914   C695.773865,534.212219 684.165100,549.460876 668.230469,560.640991   C655.926880,569.273499 642.302307,574.006958 627.148254,574.006104   C479.160309,573.998047 331.172363,574.003845 183.184418,573.997803   C163.124634,573.997009 146.488007,565.751953 131.978592,552.527710   C116.336296,538.270935 104.623810,520.774963 92.113853,503.940765   C83.070778,491.771881 74.268486,479.402679 61.634182,470.486847   C55.070126,465.854645 47.970341,463.179626 39.846092,462.922180   C30.865742,462.637634 24.512173,455.898956 24.459721,447.162476   C24.410418,438.950684 30.868563,432.043213 39.397232,431.258423   C41.051487,431.106171 42.727188,431.163879 44.393002,431.163696   C82.889862,431.159241 121.386726,431.160248 159.883591,431.160217   C161.682495,431.160217 163.481400,431.160187 165.652283,431.160187   C164.285812,415.750824 162.993561,400.852722 161.638077,385.960358   C158.799637,354.774963 155.920639,323.593292 153.071716,292.408844   C149.828827,256.912079 146.581741,221.415695 143.371948,185.915939   C140.792053,157.382538 138.187347,128.850998 135.753601,100.304993   C134.808258,89.217079 141.971313,82.172836 153.842102,82.169922   C228.502686,82.151581 303.163269,82.160324 377.823853,82.160370   C381.323578,82.160370 384.824402,82.106003 388.322784,82.174767   C398.760071,82.379875 405.732117,89.292793 405.016998,99.707047   C403.864594,116.488243 402.138702,133.230545 400.617157,149.985840   C397.453430,184.823868 394.263153,219.659485 391.086853,254.496368   C387.547546,293.314453 384.004913,332.132233 380.477051,370.951355   C378.670807,390.826416 376.893738,410.704102 375.076385,430.881287   C379.780334,430.881287 384.207825,430.881287 388.843140,430.881287   C390.774200,401.095642 404.726288,377.578796 427.175049,358.178741  M268.500000,463.002411   C212.681717,463.002411 156.863434,463.002411 100.955765,463.002411   C111.152061,476.694489 120.747673,489.879486 130.680069,502.805664   C136.658783,510.586456 142.843384,518.259094 149.502762,525.455322   C159.895462,536.685913 172.418503,542.414795 188.393875,542.353088   C287.695679,541.969421 386.999664,542.159912 486.302948,542.159851   C532.455627,542.159790 578.608948,542.030640 624.760620,542.251770   C636.035339,542.305725 645.815247,538.920471 654.059082,531.618103   C660.014404,526.342896 665.738037,520.635925 670.675842,514.415710   C683.096069,498.769684 695.012817,482.723969 707.131165,466.838348   C707.968933,465.740204 708.804871,464.640625 709.748047,463.402069   C708.973816,463.184753 708.670471,463.024933 708.367126,463.024902   C562.078064,463.010223 415.789032,463.006409 268.500000,463.002411  M257.500000,114.000504   C228.060013,114.000504 198.620026,114.000504 168.743820,114.000504   C170.219635,130.067535 171.644318,145.577820 173.119766,161.640991   C187.236160,161.640991 200.959839,161.640991 214.921234,161.640991   C214.921234,164.057632 214.920471,165.880096 214.921341,167.702545   C214.930359,186.859421 214.778366,206.018234 215.008499,225.172455   C215.149734,236.927628 226.472733,243.956589 237.211212,239.248138   C244.462372,236.068741 246.633041,229.947357 246.619339,222.576752   C246.584961,204.086166 246.608429,185.595474 246.608688,167.104828   C246.608719,165.361740 246.608673,163.618652 246.608673,161.283295   C287.432281,161.283295 327.473969,161.283295 367.705780,161.283295   C369.162018,145.243469 370.565430,129.785629 371.998535,114.000504   C333.758850,114.000504 296.129425,114.000504 257.500000,114.000504  z"
   id="path4"
   style="fill:#d9d9d9;fill-opacity:1" />
<path
   fill="#FCFCFB"
   opacity="1.000000"
   stroke="none"
   d=" M1577.135986,264.911346   C1568.619507,252.965683 1560.315186,241.307327 1551.074097,228.333878   C1551.074097,297.807373 1551.074097,365.780243 1551.074097,434.135529   C1539.690674,434.135529 1528.974243,434.135529 1518.046631,434.135529   C1518.046631,348.794098 1518.046631,263.688019 1518.046631,178.004395   C1529.470825,178.004395 1540.755249,177.871796 1552.028564,178.165558   C1553.503418,178.204010 1555.252319,180.193314 1556.317139,181.678558   C1581.753662,217.162430 1607.113037,252.701691 1632.491333,288.227234   C1633.929199,290.240051 1635.410645,292.221649 1637.302246,294.805664   C1638.766846,292.853546 1639.940796,291.353668 1641.046997,289.805450   C1666.718750,253.877930 1692.416748,217.968964 1717.984863,181.967773   C1720.024170,179.096313 1722.054077,177.804199 1725.678589,177.898727   C1735.970459,178.167114 1746.273804,177.992813 1756.854492,177.992813   C1756.854492,263.497925 1756.854492,348.577972 1756.854492,434.089172   C1746.278076,434.089172 1735.724976,434.089172 1724.516357,434.089172   C1724.516357,366.192474 1724.516357,298.173187 1724.516357,230.153900   C1724.117065,229.983688 1723.717651,229.813461 1723.318359,229.643234   C1722.264160,230.945679 1721.142334,232.199493 1720.165527,233.557587   C1696.422852,266.564484 1672.656372,299.554413 1649.029663,332.644165   C1646.787476,335.784332 1644.364990,336.710419 1640.552124,337.219788   C1631.405518,338.441833 1626.251221,334.631317 1621.250732,327.211700   C1607.100220,306.214752 1592.046387,285.826569 1577.135986,264.911346  z"
   id="path6"
   style="fill:#ffffff;fill-opacity:1" />
<path
   fill="#FDFDFD"
   opacity="1.000000"
   stroke="none"
   d=" M2750.067139,403.000000   C2750.067139,327.878998 2750.067139,253.258011 2750.067139,178.230942   C2751.924072,178.144882 2753.526367,178.006653 2755.128662,178.005890   C2782.787842,177.992691 2810.455322,177.595093 2838.102051,178.177048   C2850.672852,178.441650 2863.382812,179.739716 2875.712402,182.175842   C2899.182129,186.813080 2913.247314,201.693604 2918.061768,225.097351   C2921.224121,240.471558 2921.551025,255.849518 2916.541016,270.967865   C2912.092041,284.393311 2903.362061,294.256653 2890.975098,300.955200   C2889.141357,301.946747 2887.284668,302.895905 2885.505371,303.829559   C2892.874023,307.765015 2900.285889,310.835144 2906.706787,315.322937   C2924.372070,327.669373 2930.625000,345.716431 2930.382080,366.494904   C2930.190918,382.838196 2926.861084,398.232025 2915.738525,411.016754   C2907.574707,420.400208 2896.949707,425.643188 2885.243408,428.998505   C2869.560303,433.493683 2853.416748,434.331177 2837.258301,434.453339   C2809.600830,434.662476 2781.940674,434.516174 2754.281494,434.499268   C2752.985107,434.498474 2751.688477,434.304779 2750.067139,434.174866   C2750.067139,423.782227 2750.067139,413.641113 2750.067139,403.000000  M2896.217529,372.537872   C2896.452637,368.058380 2897.051514,363.563141 2896.858398,359.102173   C2896.112061,341.848602 2887.791504,329.970581 2871.376221,324.778748   C2862.777832,322.059296 2853.528564,320.508911 2844.510742,320.187164   C2824.718750,319.480988 2804.886475,319.890259 2785.070801,319.861084   C2784.461426,319.860168 2783.851807,320.047516 2783.299805,320.137665   C2783.299805,349.119141 2783.299805,377.822937 2783.299805,406.829163   C2801.250244,406.829163 2818.877930,407.011047 2836.498779,406.748230   C2844.634277,406.626892 2852.830566,406.134033 2860.871094,404.944061   C2882.232666,401.782623 2892.861328,392.028595 2896.217529,372.537872  M2785.636230,205.842499   C2781.708252,205.480209 2783.024414,208.461655 2783.018555,210.257721   C2782.947510,231.742050 2782.972656,253.226685 2782.972656,274.711243   C2782.972656,280.331177 2782.972900,285.951141 2782.972900,291.997009   C2786.484375,291.997009 2789.606445,292.040894 2792.727295,291.989807   C2812.362305,291.668457 2832.040771,292.018097 2851.619873,290.790222   C2870.130371,289.629364 2883.472168,277.394440 2885.628662,259.880829   C2886.767090,250.635742 2886.192383,240.925674 2884.755615,231.679703   C2882.815674,219.196045 2874.743408,211.256470 2862.297852,208.495010   C2856.490967,207.206558 2850.498047,206.212433 2844.571289,206.107346   C2825.257568,205.764877 2805.935791,205.893585 2785.636230,205.842499  z"
   id="path8"
   style="fill:#f4722b;fill-opacity:1" />
<path
   fill="#FDFDFD"
   opacity="1.000000"
   stroke="none"
   d=" M2490.030273,177.995316   C2515.180176,177.995346 2539.833008,177.942917 2564.485596,178.011276   C2585.907471,178.070679 2606.971436,180.273514 2627.112061,188.335846   C2656.678711,200.171478 2676.276123,221.527740 2685.835205,251.540802   C2696.704346,285.667480 2696.923340,320.452484 2687.856201,354.988831   C2677.010986,396.297089 2649.779785,421.200348 2608.229492,429.761993   C2593.989014,432.696259 2579.231934,433.923645 2564.667725,434.309448   C2538.034912,435.014984 2511.369873,434.515991 2484.718262,434.504120   C2483.577637,434.503632 2482.436768,434.351349 2481.062500,434.253052   C2481.062500,348.867798 2481.062500,263.670837 2481.062500,177.995316   C2483.961670,177.995316 2486.747314,177.995316 2490.030273,177.995316  M2637.965332,232.550095   C2623.589111,217.098419 2605.181641,209.540634 2584.757324,208.232727   C2561.679688,206.754944 2538.476074,207.239761 2515.327148,206.894424   C2514.875977,206.887680 2514.420654,207.168030 2514.058105,207.285156   C2514.058105,273.447205 2514.058105,339.485687 2514.058105,405.827271   C2527.265869,405.827271 2540.089600,406.199036 2552.882324,405.726959   C2566.827637,405.212372 2580.957520,405.126160 2594.630127,402.715820   C2626.245850,397.142181 2646.751709,378.549835 2655.096924,347.123413   C2660.785645,325.700470 2661.281738,303.955170 2658.605225,282.172516   C2656.385498,264.104218 2650.946045,247.065948 2637.965332,232.550095  z"
   id="path10"
   style="fill:#f4722b;fill-opacity:1" />
<path
   fill="#FCFBFB"
   opacity="1.000000"
   stroke="none"
   d=" M1231.876953,402.000000   C1231.876953,412.963531 1231.876953,423.427063 1231.876953,434.203278   C1220.843628,434.203278 1210.263550,434.203278 1199.168457,434.203278   C1199.168457,396.483734 1199.168457,358.923615 1199.168457,320.944641   C1155.947510,320.944641 1113.236328,320.944641 1069.852051,320.944641   C1069.852051,358.576172 1069.852051,396.269501 1069.852051,434.239258   C1058.602295,434.239258 1048.024048,434.239258 1037.176758,434.239258   C1037.176758,348.882507 1037.176758,263.796753 1037.176758,178.351135   C1047.845093,178.351135 1058.552856,178.351135 1069.764282,178.351135   C1069.764282,215.726715 1069.764282,252.969543 1069.764282,290.514587   C1112.984253,290.514587 1155.703979,290.514587 1198.918945,290.514587   C1198.918945,253.054214 1198.918945,215.820465 1198.918945,178.290863   C1209.995483,178.290863 1220.583252,178.290863 1231.876953,178.290863   C1231.876953,252.680557 1231.876953,327.090271 1231.876953,402.000000  z"
   id="path12"
   style="fill:#f4722b;fill-opacity:1" />
<path
   fill="#FCFCFC"
   opacity="1.000000"
   stroke="none"
   d=" M2202.130859,407.938049   C2196.572266,392.904175 2191.057617,378.267639 2185.805176,363.537476   C2184.691406,360.414124 2182.994141,359.770538 2179.947266,359.780212   C2147.117432,359.884552 2114.286621,359.893188 2081.456787,359.769379   C2078.252930,359.757294 2076.876953,360.768127 2075.799316,363.767120   C2067.863037,385.851013 2059.637695,407.831177 2051.734863,429.926666   C2050.445557,433.531860 2048.697510,434.726288 2044.913574,434.610901   C2035.616455,434.327362 2026.304810,434.518097 2016.057861,434.518097   C2048.327881,347.703003 2080.356934,261.535919 2112.523682,174.998322   C2124.029541,174.998322 2135.506348,174.857086 2146.969482,175.192642   C2148.274414,175.230850 2150.039795,177.741348 2150.683105,179.448013   C2161.307129,207.629639 2171.771973,235.871353 2182.299805,264.089294   C2202.713623,318.803223 2223.146484,373.510223 2243.562012,428.223602   C2244.243408,430.049500 2244.821777,431.913757 2245.698730,434.498688   C2234.755371,434.498688 2224.327393,434.592468 2213.907227,434.355225   C2212.851807,434.331207 2211.397217,432.487305 2210.883789,431.188965   C2207.886963,423.609406 2205.115723,415.940643 2202.130859,407.938049  M2104.503906,330.160828   C2127.148438,330.160828 2149.793213,330.160828 2173.075439,330.160828   C2159.029785,292.248810 2145.179443,254.864319 2131.329346,217.479828   C2130.942627,217.565536 2130.555908,217.651245 2130.168945,217.736954   C2116.375000,254.991425 2102.581055,292.245911 2088.542480,330.160828   C2093.961914,330.160828 2098.733887,330.160828 2104.503906,330.160828  z"
   id="path14"
   style="fill:#ffffff;fill-opacity:1" />
<path
   fill="#FCFBFB"
   opacity="1.000000"
   stroke="none"
   d=" M1304.257935,401.999878   C1304.257935,327.202087 1304.257935,252.904312 1304.257935,178.299500   C1356.060303,178.299500 1407.480591,178.299500 1459.279541,178.299500   C1459.279541,187.410736 1459.279541,196.624359 1459.279541,206.364227   C1418.825684,206.364227 1378.409058,206.364227 1337.564697,206.364227   C1337.564697,234.743729 1337.564697,262.606598 1337.564697,291.066589   C1372.397217,291.066589 1407.276245,291.066589 1442.434082,291.066589   C1442.434082,300.892853 1442.434082,310.123932 1442.434082,319.757111   C1407.369263,319.757111 1372.599121,319.757111 1337.482666,319.757111   C1337.482666,348.554260 1337.482666,376.951752 1337.482666,405.805298   C1378.577271,405.805298 1419.663330,405.805298 1461.054321,405.805298   C1461.054321,415.480927 1461.054321,424.704651 1461.054321,434.203186   C1408.816162,434.203186 1356.761597,434.203186 1304.257935,434.203186   C1304.257935,423.427094 1304.257935,412.963501 1304.257935,401.999878  z"
   id="path16"
   style="fill:#f4722b;fill-opacity:1" />
<path
   fill="#FEFEFE"
   opacity="1.000000"
   stroke="none"
   d=" M1966.876953,319.690765   C1932.546997,319.745514 1898.217163,319.800293 1863.040771,320.004700   C1861.907349,321.077271 1861.371216,321.999786 1861.369629,322.923279   C1861.321777,349.419312 1861.305176,375.915588 1861.399048,402.411316   C1861.403320,403.591766 1862.491211,404.768341 1863.074463,405.946716   C1904.055420,405.946747 1945.036499,405.946747 1986.357666,405.946747   C1986.357666,415.441315 1986.357666,424.661530 1986.357666,434.197510   C1934.201416,434.197510 1882.155396,434.197510 1829.870605,434.197510   C1829.870605,348.745575 1829.870605,263.509094 1829.870605,178.010513   C1881.069092,178.010513 1932.043091,178.010513 1983.526367,178.527832   C1984.065674,188.088379 1984.095947,197.131592 1984.126343,206.174835   C1982.309814,206.286438 1980.493408,206.493759 1978.676758,206.495560   C1940.346069,206.533493 1902.015503,206.548294 1862.866943,206.864166   C1861.809082,208.106766 1861.361206,209.052475 1861.359741,209.998901   C1861.319946,235.786453 1861.303589,261.574158 1861.393066,287.361420   C1861.397339,288.586823 1862.407349,289.808777 1862.948975,291.032349   C1897.285767,291.080505 1931.622803,291.128662 1966.456055,291.690308   C1966.927246,301.366119 1966.902100,310.528442 1966.876953,319.690765  z"
   id="path18"
   style="fill:#ffffff;fill-opacity:1" />
<path
   fill="#FCFCFC"
   opacity="1.000000"
   stroke="none"
   d=" M807.188904,207.518417   C804.576965,207.518387 802.438660,207.518387 799.963135,207.518387   C799.963135,197.528259 799.963135,187.964127 799.963135,178.195160   C862.193665,178.195160 924.307556,178.195160 986.789795,178.195160   C986.789795,187.782532 986.789795,197.334320 986.789795,207.484863   C961.385071,207.484863 935.978882,207.484863 910.125061,207.484863   C910.125061,283.337463 910.125061,358.597961 910.125061,434.187775   C898.924561,434.187775 888.177185,434.187775 876.917053,434.187775   C876.917053,358.769012 876.917053,283.531311 876.917053,207.518448   C853.497620,207.518448 830.580017,207.518448 807.188904,207.518417  z"
   id="path20"
   style="fill:#f4722b;fill-opacity:1" />
<path
   fill="#FCFCFC"
   opacity="1.000000"
   stroke="none"
   d=" M2373.999512,434.517883   C2346.195557,434.517853 2318.891602,434.517853 2291.240234,434.517853   C2291.240234,348.967346 2291.240234,263.771088 2291.240234,178.284119   C2301.894531,178.284119 2312.614258,178.284119 2323.629883,178.284119   C2323.629883,253.744339 2323.629883,329.009796 2323.629883,404.856750   C2359.448975,404.856750 2394.981445,404.856750 2430.746338,404.856750   C2430.746338,414.869934 2430.746338,424.304657 2430.746338,434.517914   C2411.993896,434.517914 2393.246826,434.517914 2373.999512,434.517883  z"
   id="path22"
   style="fill:#ffffff;fill-opacity:1" />










</svg>
